<svg width="30" height="24" viewBox="0 0 30 24" xmlns="http://www.w3.org/2000/svg">
<path d="M15 0C12.3669 6.90305e-05 9.78024 0.715412 7.49994 2.07413C5.21965 3.43285 3.32609 5.38707 2.00957 7.74038C0.693061 10.0937 -1.67229e-05 12.7632 3.02626e-10 15.4805C1.67235e-05 18.1979 0.693127 20.8673 2.00967 23.2206C2.20859 23.5778 2.53685 23.8389 2.92225 23.9463C3.30765 24.0537 3.71861 23.9987 4.06472 23.7934C4.41084 23.5881 4.66376 23.2494 4.76784 22.8516C4.87193 22.4539 4.81865 22.0298 4.61974 21.6726C3.55687 19.7935 2.99772 17.6563 2.99969 15.4804C3.00041 13.5813 3.42436 11.7077 4.23876 10.0046C5.05316 8.30156 6.2362 6.81461 7.69639 5.65874C9.15657 4.50287 10.8548 3.70906 12.6597 3.33869C14.4647 2.96832 16.328 3.03131 18.1056 3.5228C19.8831 4.01428 21.5274 4.92109 22.9111 6.17311C24.2949 7.42512 25.3811 8.9888 26.0857 10.7432C26.7904 12.4977 27.0946 14.3958 26.9749 16.291C26.8552 18.1861 26.3147 20.0274 25.3953 21.6726C25.2961 21.8493 25.2318 22.0445 25.206 22.2469C25.1802 22.4494 25.1935 22.6551 25.2451 22.8522C25.2967 23.0493 25.3855 23.234 25.5066 23.3955C25.6276 23.5571 25.7784 23.6923 25.9503 23.7934C26.2947 23.9952 26.7025 24.0483 27.0847 23.941C27.4669 23.8337 27.7924 23.5747 27.9903 23.2206C29.3069 20.8673 30 18.1979 30 15.4805C30 12.7632 29.3069 10.0937 27.9904 7.74038C26.6739 5.38707 24.7803 3.43285 22.5001 2.07413C20.2198 0.715412 17.6331 6.90305e-05 15 0ZM19.2601 8.91673L16.935 11.3007C16.3332 10.9945 15.671 10.8356 15 10.8363C14.11 10.8363 13.2399 11.1087 12.4999 11.619C11.7598 12.1293 11.183 12.8546 10.8424 13.7032C10.5018 14.5518 10.4127 15.4856 10.5864 16.3865C10.76 17.2873 11.1886 18.1148 11.8179 18.7643C12.4473 19.4138 13.2491 19.8561 14.1221 20.0353C14.995 20.2145 15.8998 20.1225 16.7221 19.771C17.5444 19.4195 18.2472 18.8243 18.7417 18.0606C19.2362 17.2968 19.5001 16.399 19.5001 15.4804C19.4991 14.7931 19.3451 14.1152 19.0501 13.4989L21.3752 11.1149C21.5158 10.971 21.6274 10.7998 21.7035 10.6112C21.7797 10.4225 21.8189 10.2202 21.8189 10.0158C21.8189 9.81148 21.7797 9.60914 21.7035 9.4205C21.6274 9.23185 21.5158 9.06064 21.3752 8.91673C21.0941 8.6284 20.7139 8.46657 20.3176 8.46657C19.9213 8.46657 19.5412 8.6284 19.2601 8.91673ZM15 17.0285C14.6022 17.0285 14.2206 16.8654 13.9393 16.5751C13.658 16.2847 13.5 15.891 13.5 15.4804C13.5 15.0699 13.658 14.6761 13.9393 14.3858C14.2206 14.0955 14.6022 13.9324 15 13.9324C15.3914 13.93 15.7682 14.0855 16.05 14.3658C16.1936 14.511 16.3074 14.6845 16.3847 14.876C16.462 15.0675 16.5012 15.273 16.5 15.4804C16.5 15.891 16.342 16.2847 16.0607 16.5751C15.7794 16.8654 15.3978 17.0285 15 17.0285Z"/>
</svg>
