<svg width="21" height="24" viewBox="0 0 21 24" xmlns="http://www.w3.org/2000/svg">
<path d="M10.6645 13.3171L10.4618 13.1858C10.2434 13.096 10.0033 13.0729 9.77181 13.1197C9.54035 13.1664 9.32796 13.2807 9.16155 13.4483C9.04643 13.5541 8.95672 13.6846 8.89912 13.83C8.83645 13.9771 8.804 14.1353 8.80369 14.2952C8.80558 14.4511 8.838 14.6051 8.89912 14.7485C9.0273 15.0351 9.25663 15.2644 9.54326 15.3926C9.68667 15.4537 9.84067 15.4862 9.99655 15.488C10.1562 15.4851 10.3139 15.4527 10.4618 15.3926C10.6049 15.3309 10.7346 15.2418 10.8435 15.1302C11.0656 14.9067 11.1903 14.6044 11.1903 14.2892C11.1903 13.9741 11.0656 13.6718 10.8435 13.4483L10.6645 13.3171ZM9.99655 4.83587C9.42739 4.82947 8.86637 4.97127 8.36862 5.24733C7.87086 5.5234 7.4535 5.92423 7.15756 6.41044C7.07125 6.5462 7.0133 6.69803 6.98719 6.85677C6.96108 7.01552 6.96735 7.1779 7.00562 7.33416C7.0439 7.49042 7.11339 7.63733 7.20991 7.76603C7.30643 7.89474 7.42798 8.0026 7.56727 8.08311C7.70655 8.16362 7.86068 8.21512 8.02039 8.23452C8.18009 8.25392 8.34207 8.24081 8.49658 8.19599C8.65109 8.15116 8.79493 8.07555 8.91946 7.97369C9.04399 7.87184 9.14662 7.74584 9.22119 7.60329C9.30919 7.48093 9.42595 7.38211 9.56117 7.31554C9.69639 7.24898 9.84591 7.2167 9.99655 7.22158C10.2338 7.22158 10.4614 7.31583 10.6292 7.48361C10.7969 7.65139 10.8912 7.87894 10.8912 8.11621C10.8912 8.35349 10.7969 8.58104 10.6292 8.74882C10.4614 8.9166 10.2338 9.01085 9.99655 9.01085C9.68018 9.01085 9.37678 9.13653 9.15307 9.36023C8.92937 9.58394 8.80369 9.88734 8.80369 10.2037C8.80369 10.5201 8.92937 10.8235 9.15307 11.0472C9.37678 11.2709 9.68018 11.3966 9.99655 11.3966C10.8665 11.3966 11.7009 11.051 12.3161 10.4358C12.9313 9.82058 13.2769 8.98622 13.2769 8.11621C13.2769 7.24621 12.9313 6.41184 12.3161 5.79666C11.7009 5.18148 10.8665 4.83587 9.99655 4.83587ZM20.2312 9.22557C20.0731 7.47757 19.4639 5.80057 18.4632 4.35862C17.4626 2.91667 16.1047 1.75917 14.5226 0.999352C12.9405 0.239537 11.1882 -0.0965668 9.43717 0.023923C7.68617 0.144413 5.99644 0.717369 4.53328 1.68674C3.27983 2.52489 2.22756 3.63025 1.45208 4.92341C0.67659 6.21658 0.197136 7.66544 0.0481546 9.16593C-0.0979909 10.6566 0.0895155 12.1611 0.59707 13.5703C1.10462 14.9794 1.9195 16.258 2.98257 17.3131L9.30469 23.6472C9.41558 23.759 9.54751 23.8477 9.69287 23.9083C9.83823 23.9688 9.99415 24 10.1516 24C10.3091 24 10.465 23.9688 10.6104 23.9083C10.7557 23.8477 10.8877 23.759 10.9985 23.6472L17.2968 17.3131C18.3599 16.258 19.1748 14.9794 19.6823 13.5703C20.1899 12.1611 20.3774 10.6566 20.2312 9.16593V9.22557ZM15.6268 15.6312L10.1397 21.1183L4.65257 15.6312C3.84392 14.8225 3.22449 13.8447 2.8388 12.7681C2.45311 11.6914 2.31074 10.5427 2.42193 9.4045C2.53384 8.24874 2.90118 7.1323 3.49737 6.13589C4.09357 5.13948 4.90373 4.288 5.86928 3.64302C7.13483 2.80234 8.62036 2.35389 10.1397 2.35389C11.659 2.35389 13.1446 2.80234 14.4101 3.64302C15.3727 4.28551 16.1811 5.13323 16.7771 6.12527C17.3732 7.11731 17.7421 8.22906 17.8574 9.38064C17.9723 10.5227 17.8317 11.676 17.4459 12.7571C17.0601 13.8381 16.4387 14.8198 15.6268 15.6312Z"/>
</svg>
