<svg width="25" height="24" viewBox="0 0 25 24" xmlns="http://www.w3.org/2000/svg">
  <path d="M12.2794 0C13.8707 0 15.3968 0.632141 16.522 1.75736C17.6472 2.88258 18.2794 4.4087 18.2794 6C18.2794 7.5913 17.6472 9.11742 16.522 10.2426C15.3968 11.3679 13.8707 12 12.2794 12C10.6881 12 9.16193 11.3679 8.03672 10.2426C6.9115 9.11742 6.27936 7.5913 6.27936 6C6.27936 4.4087 6.9115 2.88258 8.03672 1.75736C9.16193 0.632141 10.6881 0 12.2794 0ZM12.2794 15C18.9094 15 24.2794 17.685 24.2794 21V24H0.279358V21C0.279358 17.685 5.64936 15 12.2794 15Z"/>
</svg>
