<svg width="23" height="17" viewBox="0 0 23 17" fill="none" xmlns="http://www.w3.org/2000/svg">
<path d="M11.605 10.2163L5.38242 16.6731C5.17238 16.891 4.92277 17 4.63361 17C4.34445 17 4.09519 16.891 3.88585 16.6731C3.6758 16.4551 3.57078 16.1961 3.57078 15.8961C3.57078 15.596 3.6758 15.3374 3.88585 15.1202L13.2329 5.44872H10.5023V6.53846C10.5023 6.84722 10.4015 7.10622 10.1998 7.31545C9.99817 7.52468 9.74892 7.62893 9.45206 7.62821C9.15449 7.62821 8.90489 7.52359 8.70324 7.31436C8.5016 7.10513 8.40113 6.8465 8.40183 6.53846V4.35898C8.40183 4.05021 8.50265 3.79122 8.70429 3.58199C8.90594 3.37276 9.15519 3.26851 9.45206 3.26923H14.5457C14.8257 3.26923 15.0928 3.32372 15.347 3.43269C15.6011 3.54167 15.8241 3.69605 16.016 3.89583L19.1667 7.13782C19.5167 7.50107 19.9239 7.80547 20.3881 8.05103C20.8523 8.29658 21.3553 8.47348 21.8973 8.58173C22.1948 8.63622 22.4532 8.77716 22.6723 9.00455C22.8915 9.23194 23.0007 9.49966 23 9.80769C23 10.1165 22.8775 10.3707 22.6324 10.5705C22.3874 10.7703 22.1161 10.852 21.8185 10.8157C21.0308 10.7067 20.3044 10.4888 19.6393 10.1619C18.9741 9.83494 18.3615 9.38996 17.8014 8.82692L16.7511 7.68269L14.4406 10.0801L15.8322 11.524C16.0772 11.7783 16.1781 12.0827 16.1347 12.4372C16.0912 12.7918 15.9204 13.0595 15.6221 13.2404L10.8436 16.101C10.5986 16.2463 10.3318 16.2826 10.0433 16.2099C9.75487 16.1373 9.54027 15.9738 9.39954 15.7195C9.25951 15.4653 9.22906 15.1881 9.30818 14.8881C9.38729 14.588 9.54903 14.3657 9.79338 14.2212L13.3904 12.0689L11.605 10.2163ZM3.15069 9.80769C2.85312 9.80769 2.60352 9.70308 2.40188 9.49385C2.20023 9.28462 2.09976 9.02598 2.10046 8.71795C2.10046 8.40919 2.20128 8.15019 2.40293 7.94096C2.60457 7.73173 2.85382 7.62748 3.15069 7.62821H6.30137C6.59894 7.62821 6.84854 7.73282 7.05018 7.94205C7.25183 8.15128 7.3523 8.40991 7.3516 8.71795C7.3516 9.02671 7.25078 9.28571 7.04913 9.49494C6.84749 9.70417 6.59824 9.80842 6.30137 9.80769H3.15069ZM1.05023 6.53846C0.752667 6.53846 0.503063 6.43385 0.301419 6.22462C0.0997752 6.01539 -0.000696518 5.75675 3.63401e-06 5.44872C3.63401e-06 5.13996 0.100826 4.88096 0.302469 4.67173C0.504113 4.4625 0.753367 4.35825 1.05023 4.35898H4.20092C4.49848 4.35898 4.74808 4.46359 4.94973 4.67282C5.15137 4.88205 5.25184 5.14069 5.25114 5.44872C5.25114 5.75748 5.15032 6.01648 4.94868 6.22571C4.74703 6.43494 4.49778 6.53919 4.20092 6.53846H1.05023ZM19.403 4.35898C18.8253 4.35898 18.3265 4.14539 17.9064 3.71821C17.4863 3.29103 17.2763 2.77812 17.2763 2.17949C17.2763 1.58013 17.4863 1.06686 17.9064 0.639681C18.3265 0.212502 18.8253 -0.000724645 19.403 1.85016e-06C19.9806 1.85016e-06 20.4795 0.213591 20.8995 0.640771C21.3196 1.06795 21.5297 1.58086 21.5297 2.17949C21.5297 2.77885 21.3196 3.29212 20.8995 3.7193C20.4795 4.14648 19.9806 4.3597 19.403 4.35898ZM3.15069 3.26923C2.85312 3.26923 2.60352 3.16462 2.40188 2.95539C2.20023 2.74616 2.09976 2.48752 2.10046 2.17949C2.10046 1.87073 2.20128 1.61173 2.40293 1.4025C2.60457 1.19327 2.85382 1.08902 3.15069 1.08975H6.30137C6.59894 1.08975 6.84854 1.19436 7.05018 1.40359C7.25183 1.61282 7.3523 1.87145 7.3516 2.17949C7.3516 2.48825 7.25078 2.74724 7.04913 2.95648C6.84749 3.16571 6.59824 3.26996 6.30137 3.26923H3.15069Z" fill="white"/>
</svg>
