<svg width="20" height="23" viewBox="0 0 20 23" fill="none" xmlns="http://www.w3.org/2000/svg">
<path d="M4.12639 16.5446C3.03956 16.5446 2.15559 16.1532 1.49272 15.376C0.82986 14.5989 0.39484 13.4456 0.14152 11.7677C-0.231491 9.29489 0.138636 7.21066 1.18364 5.89927C1.79892 5.12691 2.60647 4.68036 3.51881 4.60849C4.29992 4.5462 5.4675 4.86195 6.59518 6.71667C7.30131 7.87809 7.83823 9.4209 8.06848 10.9493C8.3468 12.7945 8.13962 14.1528 7.43494 15.101C6.87542 15.8542 6.015 16.3209 4.87722 16.4905C4.62862 16.5269 4.37766 16.545 4.12639 16.5446ZM6.00923 23C5.37425 23 4.73061 22.7973 4.15091 22.4078C3.31438 21.8428 2.73536 20.9715 2.53965 19.9834C2.40266 19.281 2.48485 18.7228 2.79057 18.2758C3.28712 17.5499 4.1783 17.3865 5.12141 17.213C5.22091 17.1948 5.32185 17.1766 5.42424 17.157C5.64151 17.1158 5.86358 17.0611 6.07893 17.008C6.88552 16.8096 7.71998 16.6041 8.40881 17.0918C8.86978 17.4176 9.12983 17.9715 9.2077 18.7841C9.29615 19.7218 9.09426 20.6575 8.63905 21.4193C8.14924 22.2391 7.41475 22.781 6.57211 22.9459C6.38667 22.9819 6.19817 23.0001 6.00923 23ZM15.8714 11.945C15.6204 11.9441 15.3698 11.9249 15.1216 11.8875C13.9843 11.7198 13.1238 11.2526 12.5643 10.498C11.8596 9.54979 11.651 8.19192 11.9308 6.3463C12.161 4.81643 12.6965 3.27506 13.3993 2.11796C14.5212 0.269943 15.6902 -0.0505965 16.4756 0.00594115C17.3851 0.0720615 18.1912 0.512384 18.8074 1.28043C19.8597 2.59182 20.2327 4.68228 19.8582 7.1661C19.6049 8.84306 19.1756 9.99059 18.507 10.7744C17.8384 11.5583 16.9583 11.945 15.8714 11.945ZM13.9886 18.4003C13.8001 18.4003 13.6121 18.3822 13.4271 18.3462C12.5831 18.1814 11.8486 17.6395 11.3602 16.8197C10.905 16.0578 10.7031 15.1221 10.7916 14.1844C10.8685 13.3699 11.128 12.8179 11.5905 12.4917C12.2793 12.0044 13.1137 12.2095 13.9203 12.4083C14.1357 12.461 14.3578 12.5156 14.575 12.5573L14.8774 12.6134C15.821 12.7863 16.7121 12.9488 17.2087 13.6756C17.5144 14.1226 17.5966 14.6818 17.4596 15.3832C17.2641 16.3716 16.685 17.243 15.8484 17.8081C15.2653 18.1981 14.6216 18.4003 13.9886 18.4003Z" fill="white"/>
</svg>
